<mxfile host="app.diagrams.net" modified="2023-09-06T06:11:00.233Z" agent="Mozilla/5.0 (Windows NT 10.0; Win64; x64) AppleWebKit/537.36 (KHTML, like Gecko) Chrome/116.0.0.0 Safari/537.36" etag="Aq5KT933PLuQocWPKRX_" version="21.7.2" type="google">
  <diagram name="Trang-1" id="CSoRAdejH0BygsnLloxF">
    <mxGraphModel grid="1" page="1" gridSize="10" guides="1" tooltips="1" connect="1" arrows="1" fold="1" pageScale="1" pageWidth="827" pageHeight="1169" math="0" shadow="0">
      <root>
        <mxCell id="0" />
        <mxCell id="1" parent="0" />
        <mxCell id="cqLpfstF3a4nU8Anxb48-9" style="edgeStyle=orthogonalEdgeStyle;rounded=0;orthogonalLoop=1;jettySize=auto;html=1;entryX=0.5;entryY=0;entryDx=0;entryDy=0;" edge="1" parent="1" source="cqLpfstF3a4nU8Anxb48-1" target="cqLpfstF3a4nU8Anxb48-4">
          <mxGeometry relative="1" as="geometry" />
        </mxCell>
        <mxCell id="cqLpfstF3a4nU8Anxb48-1" value="BEGIN" style="ellipse;whiteSpace=wrap;html=1;" vertex="1" parent="1">
          <mxGeometry x="320" y="40" width="120" height="80" as="geometry" />
        </mxCell>
        <mxCell id="cqLpfstF3a4nU8Anxb48-2" value="END" style="ellipse;whiteSpace=wrap;html=1;" vertex="1" parent="1">
          <mxGeometry x="320" y="640" width="120" height="80" as="geometry" />
        </mxCell>
        <mxCell id="cqLpfstF3a4nU8Anxb48-10" style="edgeStyle=orthogonalEdgeStyle;rounded=0;orthogonalLoop=1;jettySize=auto;html=1;entryX=0.5;entryY=0;entryDx=0;entryDy=0;" edge="1" parent="1" source="cqLpfstF3a4nU8Anxb48-4" target="cqLpfstF3a4nU8Anxb48-5">
          <mxGeometry relative="1" as="geometry" />
        </mxCell>
        <mxCell id="cqLpfstF3a4nU8Anxb48-4" value="INPUT a" style="shape=parallelogram;perimeter=parallelogramPerimeter;whiteSpace=wrap;html=1;fixedSize=1;" vertex="1" parent="1">
          <mxGeometry x="320" y="150" width="120" height="60" as="geometry" />
        </mxCell>
        <mxCell id="cqLpfstF3a4nU8Anxb48-11" style="edgeStyle=orthogonalEdgeStyle;rounded=0;orthogonalLoop=1;jettySize=auto;html=1;entryX=0.5;entryY=0;entryDx=0;entryDy=0;" edge="1" parent="1" source="cqLpfstF3a4nU8Anxb48-5" target="cqLpfstF3a4nU8Anxb48-6">
          <mxGeometry relative="1" as="geometry" />
        </mxCell>
        <mxCell id="cqLpfstF3a4nU8Anxb48-5" value="INPUT b" style="shape=parallelogram;perimeter=parallelogramPerimeter;whiteSpace=wrap;html=1;fixedSize=1;" vertex="1" parent="1">
          <mxGeometry x="320" y="250" width="120" height="60" as="geometry" />
        </mxCell>
        <mxCell id="cqLpfstF3a4nU8Anxb48-12" style="edgeStyle=orthogonalEdgeStyle;rounded=0;orthogonalLoop=1;jettySize=auto;html=1;entryX=0.5;entryY=0;entryDx=0;entryDy=0;" edge="1" parent="1" source="cqLpfstF3a4nU8Anxb48-6" target="cqLpfstF3a4nU8Anxb48-7">
          <mxGeometry relative="1" as="geometry" />
        </mxCell>
        <mxCell id="cqLpfstF3a4nU8Anxb48-6" value="INPUT C" style="shape=parallelogram;perimeter=parallelogramPerimeter;whiteSpace=wrap;html=1;fixedSize=1;" vertex="1" parent="1">
          <mxGeometry x="320" y="350" width="120" height="60" as="geometry" />
        </mxCell>
        <mxCell id="cqLpfstF3a4nU8Anxb48-13" style="edgeStyle=orthogonalEdgeStyle;rounded=0;orthogonalLoop=1;jettySize=auto;html=1;entryX=0.5;entryY=0;entryDx=0;entryDy=0;" edge="1" parent="1" source="cqLpfstF3a4nU8Anxb48-7" target="cqLpfstF3a4nU8Anxb48-8">
          <mxGeometry relative="1" as="geometry" />
        </mxCell>
        <mxCell id="cqLpfstF3a4nU8Anxb48-7" value="d = (a + b + c) mod 3" style="rounded=1;whiteSpace=wrap;html=1;" vertex="1" parent="1">
          <mxGeometry x="320" y="450" width="120" height="60" as="geometry" />
        </mxCell>
        <mxCell id="cqLpfstF3a4nU8Anxb48-14" style="edgeStyle=orthogonalEdgeStyle;rounded=0;orthogonalLoop=1;jettySize=auto;html=1;entryX=0.5;entryY=0;entryDx=0;entryDy=0;" edge="1" parent="1" source="cqLpfstF3a4nU8Anxb48-8" target="cqLpfstF3a4nU8Anxb48-2">
          <mxGeometry relative="1" as="geometry" />
        </mxCell>
        <mxCell id="cqLpfstF3a4nU8Anxb48-8" value="OUTPUT d" style="shape=parallelogram;perimeter=parallelogramPerimeter;whiteSpace=wrap;html=1;fixedSize=1;" vertex="1" parent="1">
          <mxGeometry x="320" y="550" width="120" height="60" as="geometry" />
        </mxCell>
      </root>
    </mxGraphModel>
  </diagram>
</mxfile>
